<?xml version="1.0" encoding="utf-8"?>
<!-- Generator: Adobe Illustrator 22.0.1, SVG Export Plug-In . SVG Version: 6.00 Build 0)  -->
<svg version="1.1" id="Layer_2_1_" xmlns="http://www.w3.org/2000/svg" xmlns:xlink="http://www.w3.org/1999/xlink" x="0px" y="0px"
	 viewBox="0 0 64 64" style="enable-background:new 0 0 64 64;" xml:space="preserve">
<path d="M32,0C20.3,0,10.7,10.7,10.7,23.5v17.1C10.7,53.6,20.3,64,32,64c5.3,0,10.7-2.1,14.4-6.1c4.5-4.5,6.9-10.9,6.9-17.3V23.5
	C53.3,10.4,43.7,0,32,0z M16,23.5c0-9.1,5.9-16.5,13.3-17.9V24H16V23.5z M48,40.5c0,5.3-1.9,10.1-5.3,13.6
	c-2.9,2.9-6.7,4.5-10.7,4.5c-8.8,0-16-8.3-16-18.1V29.3h32V40.5z M48,24H34.7V5.6C42.1,6.9,48,14.4,48,23.5V24z"/>
</svg>
