<?xml version="1.0" encoding="utf-8"?>
<!-- Generator: Adobe Illustrator 22.0.1, SVG Export Plug-In . SVG Version: 6.00 Build 0)  -->
<svg version="1.1" id="Layer_2_1_" xmlns="http://www.w3.org/2000/svg" xmlns:xlink="http://www.w3.org/1999/xlink" x="0px" y="0px"
	 viewBox="0 0 64 64" style="enable-background:new 0 0 64 64;" xml:space="preserve">
<g>
	<path d="M61.3,29.3H2.7C1.1,29.3,0,30.4,0,32c0,1.6,1.1,2.7,2.7,2.7h58.7c1.6,0,2.7-1.1,2.7-2.7C64,30.4,62.9,29.3,61.3,29.3z"/>
	<path d="M61.3,48H2.7C1.1,48,0,49.1,0,50.7c0,1.6,1.1,2.7,2.7,2.7h58.7c1.6,0,2.7-1.1,2.7-2.7C64,49.1,62.9,48,61.3,48z"/>
	<path d="M2.7,16h58.7c1.6,0,2.7-1.1,2.7-2.7s-1.1-2.7-2.7-2.7H2.7c-1.6,0-2.7,1.1-2.7,2.7S1.1,16,2.7,16z"/>
</g>
</svg>
