<?xml version="1.0" encoding="utf-8"?>
<!-- Generator: Adobe Illustrator 23.0.0, SVG Export Plug-In . SVG Version: 6.00 Build 0)  -->
<svg version="1.1" id="Layer_1" xmlns="http://www.w3.org/2000/svg" xmlns:xlink="http://www.w3.org/1999/xlink" x="0px" y="0px"
	 viewBox="0 0 64 64" style="enable-background:new 0 0 64 64;" xml:space="preserve">
<g>
	<path d="M32,0C14.4,0,0,14.4,0,32s14.4,32,32,32s32-14.4,32-32S49.6,0,32,0z M32,58.7c-14.7,0-26.7-12-26.7-26.7S17.3,5.3,32,5.3
		s26.7,12,26.7,26.7S46.7,58.7,32,58.7z"/>
	<circle cx="20" cy="22.7" r="4"/>
	<circle cx="44" cy="22.7" r="4"/>
	<path d="M45.3,42.7H18.7c-1.6,0-2.7,1.1-2.7,2.7c0,1.6,1.1,2.7,2.7,2.7h26.7c1.6,0,2.7-1.1,2.7-2.7C48,43.7,46.9,42.7,45.3,42.7z"
		/>
</g>
</svg>
