<?xml version="1.0" encoding="utf-8"?>
<!-- Generator: Adobe Illustrator 23.0.0, SVG Export Plug-In . SVG Version: 6.00 Build 0)  -->
<svg version="1.1" id="Layer_1" xmlns="http://www.w3.org/2000/svg" xmlns:xlink="http://www.w3.org/1999/xlink" x="0px" y="0px"
	 viewBox="0 0 64 64" style="enable-background:new 0 0 64 64;" xml:space="preserve">
<g>
	<path d="M18.7,0h-16C1.1,0,0,1.1,0,2.7v16c0,1.6,1.1,2.7,2.7,2.7s2.7-1.1,2.7-2.7V5.3h13.3c1.6,0,2.7-1.1,2.7-2.7S20.3,0,18.7,0z"
		/>
	<path d="M61.3,0h-16c-1.6,0-2.7,1.1-2.7,2.7s1.1,2.7,2.7,2.7h13.3v13.3c0,1.6,1.1,2.7,2.7,2.7c1.6,0,2.7-1.1,2.7-2.7v-16
		C64,1.1,62.9,0,61.3,0z"/>
	<path d="M61.3,42.7c-1.6,0-2.7,1.1-2.7,2.7v13.3H45.3c-1.6,0-2.7,1.1-2.7,2.7c0,1.6,1.1,2.7,2.7,2.7h16c1.6,0,2.7-1.1,2.7-2.7v-16
		C64,43.7,62.9,42.7,61.3,42.7z"/>
	<path d="M18.7,58.7H5.3V45.3c0-1.6-1.1-2.7-2.7-2.7S0,43.7,0,45.3v16C0,62.9,1.1,64,2.7,64h16c1.6,0,2.7-1.1,2.7-2.7
		C21.3,59.7,20.3,58.7,18.7,58.7z"/>
</g>
</svg>
